<?xml version="1.0" encoding="iso-8859-1"?>
<!-- Generator: Adobe Illustrator 16.2.0, SVG Export Plug-In . SVG Version: 6.00 Build 0)  -->
<!DOCTYPE svg PUBLIC "-//W3C//DTD SVG 1.1//EN" "http://www.w3.org/Graphics/SVG/1.1/DTD/svg11.dtd">
<svg version="1.1" xmlns="http://www.w3.org/2000/svg" xmlns:xlink="http://www.w3.org/1999/xlink" x="0px" y="0px" width="612px"
	 height="792px" viewBox="0 0 612 792" style="enable-background:new 0 0 612 792;" xml:space="preserve">
<g id="oval">
	<g id="Layer_2_65_">
		<g id="Layer_3_65_">
		</g>
		<g id="Layer_2_67_">
		</g>
		<g id="Layer_3_64_">
		</g>
		<g id="Layer_2_66_">
		</g>
		<g id="Layer_3_63_">
		</g>
		<g>
			<g id="Layer_1_30_">
				<g>
					<g id="Layer_1_31_">
						<path style="fill:#FFFFFF;stroke:#373535;stroke-width:1.5;stroke-miterlimit:10;" d="M592.579,399.987
							c0,27.307-7.51,53.403-22.535,78.291c-14.488,24.102-34.961,45.445-61.412,64.025c-26.449,18.552-56.802,32.936-91.048,43.152
							c-35.496,10.536-72.682,15.807-111.557,15.807c-38.876,0-76.062-5.271-111.559-15.807
							c-34.283-10.217-64.65-24.601-91.103-43.152c-26.449-18.58-46.922-39.926-61.411-64.025
							c-15.024-24.921-22.534-51.018-22.534-78.291c0-27.305,7.51-53.437,22.534-78.394c14.491-24.066,34.962-45.391,61.411-63.975
							c26.452-18.584,56.819-32.968,91.103-43.151c35.495-10.538,72.683-15.807,111.559-15.807
							c38.875,0,76.061,5.269,111.557,15.807c34.248,10.184,64.599,24.565,91.048,43.151c26.451,18.584,46.924,39.908,61.412,63.975
							C585.069,346.551,592.579,372.683,592.579,399.987z"/>
					</g>
				</g>
			</g>
		</g>
	</g>
</g>
<g id="Layer_1">
</g>
</svg>
